<?xml version="1.0" standalone="no"?><!DOCTYPE svg PUBLIC "-//W3C//DTD SVG 1.1//EN" "http://www.w3.org/Graphics/SVG/1.1/DTD/svg11.dtd"><svg t="1724379645008" class="icon" viewBox="0 0 1024 1024" version="1.1" xmlns="http://www.w3.org/2000/svg" p-id="5470" xmlns:xlink="http://www.w3.org/1999/xlink" width="200" height="200"><path d="M804.171459 640.699947c-47.686717-48.770506-104.766273-83.99365-167.264774-104.224378 84.174281-44.796613 141.434468-133.30605 141.434469-235.182219 0-146.853413-119.397425-266.250838-266.250838-266.250838S245.839478 154.439936 245.839478 301.29335c0 101.695537 57.440818 190.385606 141.434468 235.182219-62.498501 20.230729-119.758688 55.453872-167.264773 104.224378C142.156994 720.358441 99.347328 826.208502 99.347328 938.74193c0 8.670312 0.361263 17.701887 0.903157 26.914094 0.722526 13.1861 11.741048 23.301464 24.746516 23.301464h774.367261c13.1861 0 24.02399-10.295996 24.746516-23.301464 0.541895-9.212207 0.903158-18.243782 0.903157-26.914094-0.180632-112.533427-42.990298-218.383489-120.842476-298.041983zM295.513142 301.29335c0-119.397425 97.17975-216.577174 216.577174-216.577174 119.397425 0 216.577174 97.17975 216.577174 216.577174 0 113.978479-88.509437 207.72623-200.50097 215.854648-5.418945-0.180632-10.657259-0.361263-16.076204-0.361263s-10.83789 0.180632-16.076204 0.361263c-111.991533-8.128418-200.50097-101.876169-200.50097-215.854648zM875.15964 939.283824h-726.138649v-0.541894c0-199.417181 153.898042-362.708061 346.451226-371.739637 5.599577 0.361263 11.018522 0.541895 16.618099 0.541895s11.199153-0.180632 16.618098-0.541895c192.553184 9.031575 346.451226 172.322455 346.451226 371.739637v0.541894z" p-id="5471" fill="#24A0ED"></path></svg>