<?xml version="1.0" standalone="no"?><!DOCTYPE svg PUBLIC "-//W3C//DTD SVG 1.1//EN" "http://www.w3.org/Graphics/SVG/1.1/DTD/svg11.dtd"><svg t="1724379461219" class="icon" viewBox="0 0 1039 1024" version="1.1" xmlns="http://www.w3.org/2000/svg" p-id="4318" xmlns:xlink="http://www.w3.org/1999/xlink" width="202.9296875" height="200"><path d="M1033.08204 485.889135L567.627494 20.43459c-27.24612-27.24612-70.385809-27.24612-95.361419 0L6.81153 485.889135c-9.08204 9.08204-9.08204 22.7051 0 31.78714 4.54102 4.54102 9.08204 6.81153 15.89357 6.81153s11.35255-2.27051 15.89357-6.81153l61.303769-61.303769v499.512195c0 38.59867 29.51663 68.115299 68.115299 68.115299h227.050998v-102.172949c0-68.115299 56.762749-124.878049 124.878049-124.878049s124.878049 56.762749 124.878049 124.878049v102.172949h227.050997c38.59867 0 68.115299-29.51663 68.1153-68.115299v-499.512195l61.303769 61.303769c9.08204 9.08204 22.7051 9.08204 31.78714 0s9.08204-22.7051 0-31.78714z m-138.501109 469.995566c0 13.62306-9.08204 22.7051-22.7051 22.705099h-181.640798v-56.762749c0-93.090909-77.197339-170.288248-170.288248-170.288248s-170.288248 77.197339-170.288248 170.288248v56.762749h-181.640799c-13.62306 0-22.7051-9.08204-22.705099-22.705099v-544.922395L504.053215 52.221729c9.08204-9.08204 22.7051-9.08204 31.78714 0l358.740576 358.740577v544.922395z" p-id="4319"></path></svg>